<svg xmlns="http://www.w3.org/2000/svg" viewBox="0 0 220 48" fill="none">
  <defs>
    <linearGradient id="lt-grad" x1="0" y1="0" x2="48" y2="48" gradientUnits="userSpaceOnUse">
      <stop offset="0%" stop-color="#6366f1"/>
      <stop offset="100%" stop-color="#a855f7"/>
    </linearGradient>
    <linearGradient id="lt-inner" x1="8" y1="8" x2="40" y2="40" gradientUnits="userSpaceOnUse">
      <stop offset="0%" stop-color="#818cf8"/>
      <stop offset="100%" stop-color="#c084fc"/>
    </linearGradient>
  </defs>
  <!-- Icon hexagon -->
  <path d="M24 2 L43 13 L43 35 L24 46 L5 35 L5 13 Z" fill="url(#lt-grad)"/>
  <!-- Inner honeycomb cell -->
  <path d="M24 9 L32 13.6 L32 22.8 L24 27.4 L16 22.8 L16 13.6 Z" fill="url(#lt-inner)" opacity="0.3"/>
  <path d="M16 22 L24 26.6 L32 22" stroke="#ffffff" stroke-width="0.6" fill="none" opacity="0.2"/>
  <!-- HH monogram in icon -->
  <g fill="#ffffff">
    <rect x="14" y="14" width="2.2" height="18" rx="1"/>
    <rect x="21.8" y="14" width="2.2" height="18" rx="1"/>
    <rect x="14" y="21.2" width="10" height="2.2" rx="1"/>
    <rect x="24" y="14" width="2.2" height="18" rx="1"/>
    <rect x="31.8" y="14" width="2.2" height="18" rx="1"/>
    <rect x="24" y="21.2" width="10" height="2.2" rx="1"/>
  </g>
  <!-- "HostHive" text - uses currentColor for theme compatibility -->
  <g fill="currentColor">
    <!-- H -->
    <path d="M58 14h3v8h8v-8h3v20h-3v-9h-8v9h-3z"/>
    <!-- o -->
    <path d="M80.5 21c-3.6 0-6 2.5-6 6.5s2.4 6.5 6 6.5 6-2.5 6-6.5-2.4-6.5-6-6.5zm0 2.5c2 0 3.2 1.6 3.2 4s-1.2 4-3.2 4-3.2-1.6-3.2-4 1.2-4 3.2-4z"/>
    <!-- s -->
    <path d="M90 30.8c1.2.8 2.6 1.2 4 1.2 1.6 0 2.5-.6 2.5-1.6 0-1-.7-1.4-2.4-1.8l-1.2-.3c-2.4-.6-3.6-1.8-3.6-3.8 0-2.4 2-4.3 5-4.3 1.6 0 3 .4 4 1l-1 2.2c-.9-.5-2-.8-3-.8-1.4 0-2.2.6-2.2 1.5 0 .9.7 1.3 2.2 1.7l1.2.3c2.6.6 3.8 1.8 3.8 3.9 0 2.5-2 4.3-5.3 4.3-1.8 0-3.4-.5-4.8-1.3z"/>
    <!-- t -->
    <path d="M102 16h2.8v5.5h3v2.3h-3v7c0 1.2.5 1.7 1.5 1.7.5 0 1-.1 1.5-.3v2.3c-.6.3-1.4.4-2.2.4-2.4 0-3.6-1.3-3.6-3.8v-7.3h-2.2v-2.3h2.2z"/>
    <!-- H -->
    <path d="M114 14h3v8h8v-8h3v20h-3v-9h-8v9h-3z"/>
    <!-- i -->
    <path d="M133.5 14c1.1 0 1.8.7 1.8 1.7s-.7 1.7-1.8 1.7-1.8-.7-1.8-1.7.7-1.7 1.8-1.7zM132.1 21.5h2.8V34h-2.8z"/>
    <!-- v -->
    <path d="M139 21.5h3l3.5 9.5 3.5-9.5h2.8L147 34h-3.2z"/>
    <!-- e -->
    <path d="M157.5 21c-3.4 0-5.8 2.5-5.8 6.5 0 4.2 2.4 6.5 6.2 6.5 1.8 0 3.4-.5 4.6-1.3l-1-2c-1 .6-2.2 1-3.4 1-2 0-3.4-1.1-3.6-3.4h8.6c0-.4.1-.9.1-1.4 0-3.6-2.2-5.9-5.7-5.9zm-3 5.3c.3-2 1.5-3 3-3s2.7 1 2.8 3z"/>
  </g>
</svg>
